<mxfile host="65bd71144e">
    <diagram id="e-9q7P5vbUteVnKXbtz9" name="Page-1">
        <mxGraphModel dx="2227" dy="1216" grid="0" gridSize="10" guides="1" tooltips="1" connect="1" arrows="1" fold="1" page="0" pageScale="1" pageWidth="1920" pageHeight="1200" math="0" shadow="0">
            <root>
                <mxCell id="0"/>
                <mxCell id="1" parent="0"/>
                <mxCell id="355" style="edgeStyle=none;html=1;exitX=0.5;exitY=1;exitDx=0;exitDy=0;entryX=1;entryY=0.75;entryDx=0;entryDy=0;" edge="1" parent="1" source="62" target="353">
                    <mxGeometry relative="1" as="geometry"/>
                </mxCell>
                <mxCell id="62" value="" style="shape=ellipse;html=1;dashed=0;whitespace=wrap;perimeter=ellipsePerimeter;" vertex="1" parent="1">
                    <mxGeometry x="483" y="300" width="200" height="90" as="geometry"/>
                </mxCell>
                <mxCell id="63" value="True Link" style="text;strokeColor=none;align=center;fillColor=none;html=1;verticalAlign=middle;whiteSpace=wrap;rounded=0;" vertex="1" parent="1">
                    <mxGeometry x="555.5" y="330" width="60" height="30" as="geometry"/>
                </mxCell>
                <mxCell id="64" value="" style="html=1;dashed=0;whitespace=wrap;" vertex="1" parent="1">
                    <mxGeometry x="263" y="210" width="100" height="50" as="geometry"/>
                </mxCell>
                <mxCell id="65" value="" style="html=1;dashed=0;whitespace=wrap;" vertex="1" parent="1">
                    <mxGeometry x="263" y="289" width="100" height="50" as="geometry"/>
                </mxCell>
                <mxCell id="66" value="" style="html=1;dashed=0;whitespace=wrap;" vertex="1" parent="1">
                    <mxGeometry x="262" y="380" width="100" height="50" as="geometry"/>
                </mxCell>
                <mxCell id="67" value="" style="endArrow=classic;html=1;exitX=1;exitY=0.364;exitDx=0;exitDy=0;exitPerimeter=0;entryX=0.179;entryY=0.114;entryDx=0;entryDy=0;entryPerimeter=0;" edge="1" parent="1" source="64" target="62">
                    <mxGeometry width="50" height="50" relative="1" as="geometry">
                        <mxPoint x="363.5" y="228.5" as="sourcePoint"/>
                        <mxPoint x="523" y="311" as="targetPoint"/>
                    </mxGeometry>
                </mxCell>
                <mxCell id="68" value="" style="endArrow=classic;html=1;exitX=0.127;exitY=0.17;exitDx=0;exitDy=0;exitPerimeter=0;entryX=0.995;entryY=0.637;entryDx=0;entryDy=0;entryPerimeter=0;" edge="1" parent="1" source="62" target="64">
                    <mxGeometry width="50" height="50" relative="1" as="geometry">
                        <mxPoint x="502.4000000000001" y="314.0899999999999" as="sourcePoint"/>
                        <mxPoint x="363" y="246" as="targetPoint"/>
                    </mxGeometry>
                </mxCell>
                <mxCell id="69" value="" style="endArrow=classic;html=1;exitX=1;exitY=0.5;exitDx=0;exitDy=0;entryX=0.043;entryY=0.292;entryDx=0;entryDy=0;entryPerimeter=0;" edge="1" parent="1" source="65" target="62">
                    <mxGeometry width="50" height="50" relative="1" as="geometry">
                        <mxPoint x="433" y="340" as="sourcePoint"/>
                        <mxPoint x="483" y="290" as="targetPoint"/>
                    </mxGeometry>
                </mxCell>
                <mxCell id="70" value="" style="endArrow=classic;html=1;exitX=0.013;exitY=0.385;exitDx=0;exitDy=0;exitPerimeter=0;entryX=1;entryY=0.75;entryDx=0;entryDy=0;" edge="1" parent="1" source="62" target="65">
                    <mxGeometry width="50" height="50" relative="1" as="geometry">
                        <mxPoint x="483" y="340" as="sourcePoint"/>
                        <mxPoint x="363" y="310" as="targetPoint"/>
                    </mxGeometry>
                </mxCell>
                <mxCell id="71" value="" style="endArrow=classic;html=1;entryX=0.021;entryY=0.642;entryDx=0;entryDy=0;entryPerimeter=0;" edge="1" parent="1">
                    <mxGeometry width="50" height="50" relative="1" as="geometry">
                        <mxPoint x="363" y="400" as="sourcePoint"/>
                        <mxPoint x="489.20000000000005" y="359.78" as="targetPoint"/>
                    </mxGeometry>
                </mxCell>
                <mxCell id="72" value="" style="endArrow=classic;html=1;entryX=1;entryY=0.75;entryDx=0;entryDy=0;exitX=0.054;exitY=0.724;exitDx=0;exitDy=0;exitPerimeter=0;" edge="1" parent="1" target="66">
                    <mxGeometry width="50" height="50" relative="1" as="geometry">
                        <mxPoint x="493.79999999999995" y="366.15999999999997" as="sourcePoint"/>
                        <mxPoint x="362" y="393" as="targetPoint"/>
                    </mxGeometry>
                </mxCell>
                <mxCell id="73" value="" style="endArrow=classic;html=1;entryX=0.001;entryY=0.458;entryDx=0;entryDy=0;entryPerimeter=0;exitX=0.998;exitY=0.445;exitDx=0;exitDy=0;exitPerimeter=0;" edge="1" parent="1" source="62">
                    <mxGeometry width="50" height="50" relative="1" as="geometry">
                        <mxPoint x="683" y="340" as="sourcePoint"/>
                        <mxPoint x="766.06" y="339.64" as="targetPoint"/>
                    </mxGeometry>
                </mxCell>
                <mxCell id="74" value="" style="endArrow=classic;html=1;entryX=0.996;entryY=0.558;entryDx=0;entryDy=0;entryPerimeter=0;exitX=0;exitY=0.572;exitDx=0;exitDy=0;exitPerimeter=0;" edge="1" parent="1">
                    <mxGeometry width="50" height="50" relative="1" as="geometry">
                        <mxPoint x="766" y="350.7600000000001" as="sourcePoint"/>
                        <mxPoint x="682.2" y="351.22000000000014" as="targetPoint"/>
                    </mxGeometry>
                </mxCell>
                <mxCell id="75" value="" style="shape=cylinder;whiteSpace=wrap;html=1;boundedLbl=1;backgroundOutline=1;" vertex="1" parent="1">
                    <mxGeometry x="766" y="298" width="60" height="80" as="geometry"/>
                </mxCell>
                <mxCell id="76" value="Database" style="text;strokeColor=none;align=center;fillColor=none;html=1;verticalAlign=middle;whiteSpace=wrap;rounded=0;" vertex="1" parent="1">
                    <mxGeometry x="767" y="333" width="60" height="30" as="geometry"/>
                </mxCell>
                <mxCell id="77" value="Goverment Authorities" style="text;strokeColor=none;align=center;fillColor=none;html=1;verticalAlign=middle;whiteSpace=wrap;rounded=0;" vertex="1" parent="1">
                    <mxGeometry x="282" y="220" width="60" height="30" as="geometry"/>
                </mxCell>
                <mxCell id="78" value="Citizens" style="text;strokeColor=none;align=center;fillColor=none;html=1;verticalAlign=middle;whiteSpace=wrap;rounded=0;" vertex="1" parent="1">
                    <mxGeometry x="283" y="300" width="60" height="30" as="geometry"/>
                </mxCell>
                <mxCell id="79" value="Contractors" style="text;strokeColor=none;align=center;fillColor=none;html=1;verticalAlign=middle;whiteSpace=wrap;rounded=0;" vertex="1" parent="1">
                    <mxGeometry x="283" y="390" width="60" height="30" as="geometry"/>
                </mxCell>
                <mxCell id="178" style="edgeStyle=none;html=1;entryX=0.005;entryY=0.564;entryDx=0;entryDy=0;entryPerimeter=0;" edge="1" parent="1" source="179" target="205">
                    <mxGeometry relative="1" as="geometry"/>
                </mxCell>
                <mxCell id="179" value="" style="html=1;dashed=0;whitespace=wrap;" vertex="1" parent="1">
                    <mxGeometry x="260" y="846" width="100" height="50" as="geometry"/>
                </mxCell>
                <mxCell id="180" style="edgeStyle=none;html=1;exitX=0.996;exitY=0.448;exitDx=0;exitDy=0;entryX=0.002;entryY=0.354;entryDx=0;entryDy=0;exitPerimeter=0;entryPerimeter=0;" edge="1" parent="1" source="181" target="208">
                    <mxGeometry relative="1" as="geometry">
                        <Array as="points"/>
                    </mxGeometry>
                </mxCell>
                <mxCell id="181" value="" style="shape=ellipse;html=1;dashed=0;whitespace=wrap;perimeter=ellipsePerimeter;" vertex="1" parent="1">
                    <mxGeometry x="485" y="880" width="145" height="60" as="geometry"/>
                </mxCell>
                <mxCell id="182" value="Login" style="text;align=center;html=1;verticalAlign=middle;whiteSpace=wrap;rounded=0;" vertex="1" parent="1">
                    <mxGeometry x="529.1300000000001" y="895" width="60" height="30" as="geometry"/>
                </mxCell>
                <mxCell id="183" style="edgeStyle=none;html=1;" edge="1" parent="1">
                    <mxGeometry relative="1" as="geometry">
                        <mxPoint x="640.0000103404934" y="1542.8442812826456" as="sourcePoint"/>
                        <mxPoint x="769" y="1543" as="targetPoint"/>
                    </mxGeometry>
                </mxCell>
                <mxCell id="184" value="" style="shape=ellipse;html=1;dashed=0;whitespace=wrap;perimeter=ellipsePerimeter;" vertex="1" parent="1">
                    <mxGeometry x="490" y="1494" width="150" height="90" as="geometry"/>
                </mxCell>
                <mxCell id="185" value="Approve bid" style="text;strokeColor=none;align=center;fillColor=none;html=1;verticalAlign=middle;whiteSpace=wrap;rounded=0;" vertex="1" parent="1">
                    <mxGeometry x="516.1199999999999" y="1528" width="101.25" height="30" as="geometry"/>
                </mxCell>
                <mxCell id="186" value="" style="shape=ellipse;html=1;dashed=0;whitespace=wrap;perimeter=ellipsePerimeter;" vertex="1" parent="1">
                    <mxGeometry x="490" y="1118" width="150" height="90" as="geometry"/>
                </mxCell>
                <mxCell id="187" value="" style="endArrow=classic;html=1;entryX=0.009;entryY=0.411;entryDx=0;entryDy=0;entryPerimeter=0;exitX=1.005;exitY=0.626;exitDx=0;exitDy=0;exitPerimeter=0;" edge="1" parent="1" source="179" target="181">
                    <mxGeometry width="50" height="50" relative="1" as="geometry">
                        <mxPoint x="360" y="905" as="sourcePoint"/>
                        <mxPoint x="487.30999999999995" y="904.7" as="targetPoint"/>
                    </mxGeometry>
                </mxCell>
                <mxCell id="188" value="" style="endArrow=classic;html=1;" edge="1" parent="1">
                    <mxGeometry width="50" height="50" relative="1" as="geometry">
                        <mxPoint x="390" y="1162" as="sourcePoint"/>
                        <mxPoint x="490" y="1162" as="targetPoint"/>
                    </mxGeometry>
                </mxCell>
                <mxCell id="189" value="Government Authorities" style="text;strokeColor=none;align=center;fillColor=none;html=1;verticalAlign=middle;whiteSpace=wrap;rounded=0;" vertex="1" parent="1">
                    <mxGeometry x="280" y="856" width="60" height="30" as="geometry"/>
                </mxCell>
                <mxCell id="190" style="edgeStyle=none;html=1;exitX=0;exitY=0.5;exitDx=0;exitDy=0;entryX=1;entryY=0.446;entryDx=0;entryDy=0;entryPerimeter=0;" edge="1" parent="1" source="191" target="197">
                    <mxGeometry relative="1" as="geometry"/>
                </mxCell>
                <mxCell id="191" value="" style="html=1;dashed=0;whitespace=wrap;shape=mxgraph.dfd.dataStoreID;align=left;spacingLeft=3;points=[[0,0],[0.5,0],[1,0],[0,0.5],[1,0.5],[0,1],[0.5,1],[1,1]];" vertex="1" parent="1">
                    <mxGeometry x="740" y="1198" width="100" height="30" as="geometry"/>
                </mxCell>
                <mxCell id="192" value="" style="html=1;dashed=0;whitespace=wrap;shape=mxgraph.dfd.dataStoreID;align=left;spacingLeft=3;points=[[0,0],[0.5,0],[1,0],[0,0.5],[1,0.5],[0,1],[0.5,1],[1,1]];" vertex="1" parent="1">
                    <mxGeometry x="738" y="1407" width="100" height="30" as="geometry"/>
                </mxCell>
                <mxCell id="193" value="" style="edgeStyle=elbowEdgeStyle;elbow=horizontal;endArrow=classic;html=1;curved=0;rounded=0;endSize=8;startSize=8;exitX=0.013;exitY=0.625;exitDx=0;exitDy=0;exitPerimeter=0;entryX=0.005;entryY=0.422;entryDx=0;entryDy=0;entryPerimeter=0;" edge="1" parent="1" target="359">
                    <mxGeometry width="50" height="50" relative="1" as="geometry">
                        <mxPoint x="485.8850000000002" y="913.5" as="sourcePoint"/>
                        <mxPoint x="486" y="1552" as="targetPoint"/>
                        <Array as="points">
                            <mxPoint x="389" y="1261"/>
                            <mxPoint x="389" y="1191"/>
                            <mxPoint x="389" y="519.27"/>
                        </Array>
                    </mxGeometry>
                </mxCell>
                <mxCell id="194" style="edgeStyle=none;html=1;entryX=0.008;entryY=0.329;entryDx=0;entryDy=0;entryPerimeter=0;exitX=0.968;exitY=0.68;exitDx=0;exitDy=0;exitPerimeter=0;" edge="1" parent="1" source="186" target="191">
                    <mxGeometry relative="1" as="geometry">
                        <mxPoint x="630" y="1178" as="sourcePoint"/>
                    </mxGeometry>
                </mxCell>
                <mxCell id="195" value="&lt;p&gt;initiate project&lt;/p&gt;" style="text;strokeColor=none;align=center;fillColor=none;html=1;verticalAlign=middle;whiteSpace=wrap;rounded=0;" vertex="1" parent="1">
                    <mxGeometry x="494" y="1148" width="139" height="30" as="geometry"/>
                </mxCell>
                <mxCell id="196" value="" style="endArrow=classic;html=1;" edge="1" parent="1">
                    <mxGeometry width="50" height="50" relative="1" as="geometry">
                        <mxPoint x="390" y="1281" as="sourcePoint"/>
                        <mxPoint x="490" y="1281" as="targetPoint"/>
                    </mxGeometry>
                </mxCell>
                <mxCell id="197" value="" style="shape=ellipse;html=1;dashed=0;whitespace=wrap;perimeter=ellipsePerimeter;" vertex="1" parent="1">
                    <mxGeometry x="490" y="1238" width="150" height="90" as="geometry"/>
                </mxCell>
                <mxCell id="198" value="Track project progress,&amp;nbsp;" style="text;strokeColor=none;align=center;fillColor=none;html=1;verticalAlign=middle;whiteSpace=wrap;rounded=0;" vertex="1" parent="1">
                    <mxGeometry x="503" y="1268" width="130" height="30" as="geometry"/>
                </mxCell>
                <mxCell id="204" style="edgeStyle=none;html=1;exitX=1;exitY=0.5;exitDx=0;exitDy=0;entryX=-0.002;entryY=0.162;entryDx=0;entryDy=0;entryPerimeter=0;" edge="1" parent="1" source="205" target="208">
                    <mxGeometry relative="1" as="geometry"/>
                </mxCell>
                <mxCell id="205" value="" style="shape=ellipse;html=1;dashed=0;whitespace=wrap;perimeter=ellipsePerimeter;" vertex="1" parent="1">
                    <mxGeometry x="482.6300000000001" y="790" width="145" height="60" as="geometry"/>
                </mxCell>
                <mxCell id="206" value="Register" style="text;strokeColor=none;align=center;fillColor=none;html=1;verticalAlign=middle;whiteSpace=wrap;rounded=0;" vertex="1" parent="1">
                    <mxGeometry x="529.1300000000001" y="805" width="60" height="30" as="geometry"/>
                </mxCell>
                <mxCell id="207" style="edgeStyle=none;html=1;exitX=-0.009;exitY=0.593;exitDx=0;exitDy=0;entryX=0.996;entryY=0.567;entryDx=0;entryDy=0;entryPerimeter=0;exitPerimeter=0;" edge="1" parent="1" source="208" target="181">
                    <mxGeometry relative="1" as="geometry"/>
                </mxCell>
                <mxCell id="208" value="" style="html=1;dashed=0;whitespace=wrap;shape=mxgraph.dfd.dataStoreID;align=left;spacingLeft=3;points=[[0,0],[0.5,0],[1,0],[0,0.5],[1,0.5],[0,1],[0.5,1],[1,1]];" vertex="1" parent="1">
                    <mxGeometry x="740" y="896" width="100" height="30" as="geometry"/>
                </mxCell>
                <mxCell id="209" value="User" style="text;strokeColor=none;align=center;fillColor=none;html=1;verticalAlign=middle;whiteSpace=wrap;rounded=0;" vertex="1" parent="1">
                    <mxGeometry x="770" y="896" width="60" height="30" as="geometry"/>
                </mxCell>
                <mxCell id="210" value="Project" style="text;strokeColor=none;align=center;fillColor=none;html=1;verticalAlign=middle;whiteSpace=wrap;rounded=0;" vertex="1" parent="1">
                    <mxGeometry x="772" y="1198" width="60" height="30" as="geometry"/>
                </mxCell>
                <mxCell id="211" value="Tender" style="text;strokeColor=none;align=center;fillColor=none;html=1;verticalAlign=middle;whiteSpace=wrap;rounded=0;" vertex="1" parent="1">
                    <mxGeometry x="770" y="1407" width="60" height="30" as="geometry"/>
                </mxCell>
                <mxCell id="213" style="edgeStyle=none;html=1;entryX=-0.011;entryY=0.729;entryDx=0;entryDy=0;fontColor=#FFFFFF;entryPerimeter=0;" edge="1" parent="1" source="214" target="208">
                    <mxGeometry relative="1" as="geometry"/>
                </mxCell>
                <mxCell id="214" value="" style="shape=ellipse;html=1;dashed=0;whitespace=wrap;perimeter=ellipsePerimeter;" vertex="1" parent="1">
                    <mxGeometry x="487.74" y="977" width="150" height="90" as="geometry"/>
                </mxCell>
                <mxCell id="215" value="Create and Delete user accounts" style="text;strokeColor=none;align=center;fillColor=none;html=1;verticalAlign=middle;whiteSpace=wrap;rounded=0;" vertex="1" parent="1">
                    <mxGeometry x="514.3699999999999" y="1007" width="93.26" height="30" as="geometry"/>
                </mxCell>
                <mxCell id="216" style="edgeStyle=none;html=1;exitX=-0.021;exitY=0.932;exitDx=0;exitDy=0;entryX=0.916;entryY=0.198;entryDx=0;entryDy=0;entryPerimeter=0;exitPerimeter=0;" edge="1" parent="1" source="208" target="214">
                    <mxGeometry relative="1" as="geometry">
                        <mxPoint x="749.6800000000001" y="990" as="sourcePoint"/>
                        <mxPoint x="640" y="990.23" as="targetPoint"/>
                    </mxGeometry>
                </mxCell>
                <mxCell id="217" value="" style="endArrow=classic;html=1;entryX=0;entryY=0.5;entryDx=0;entryDy=0;" edge="1" parent="1" target="214">
                    <mxGeometry width="50" height="50" relative="1" as="geometry">
                        <mxPoint x="390" y="1021" as="sourcePoint"/>
                        <mxPoint x="485" y="1021.47" as="targetPoint"/>
                    </mxGeometry>
                </mxCell>
                <mxCell id="218" value="" style="endArrow=classic;html=1;entryX=0;entryY=0.5;entryDx=0;entryDy=0;" edge="1" parent="1">
                    <mxGeometry width="50" height="50" relative="1" as="geometry">
                        <mxPoint x="390" y="1416.57" as="sourcePoint"/>
                        <mxPoint x="490" y="1417" as="targetPoint"/>
                    </mxGeometry>
                </mxCell>
                <mxCell id="219" value="Data managment" style="text;strokeColor=none;align=center;fillColor=none;html=1;verticalAlign=middle;whiteSpace=wrap;rounded=0;" vertex="1" parent="1">
                    <mxGeometry x="538" y="1405" width="60" height="30" as="geometry"/>
                </mxCell>
                <mxCell id="220" style="edgeStyle=none;html=1;entryX=0.014;entryY=0.223;entryDx=0;entryDy=0;entryPerimeter=0;fontColor=#FFFFFF;" edge="1" parent="1">
                    <mxGeometry relative="1" as="geometry">
                        <mxPoint x="645.9943498938046" y="1419.5185533957174" as="sourcePoint"/>
                        <mxPoint x="739.4000000000001" y="1418.6899999999998" as="targetPoint"/>
                    </mxGeometry>
                </mxCell>
                <mxCell id="221" value="&lt;span style=&quot;&quot;&gt;Data managment&lt;/span&gt;" style="shape=ellipse;html=1;dashed=0;whitespace=wrap;perimeter=ellipsePerimeter;" vertex="1" parent="1">
                    <mxGeometry x="490" y="1375" width="156" height="80" as="geometry"/>
                </mxCell>
                <mxCell id="256" style="edgeStyle=none;html=1;entryX=0;entryY=0.5;entryDx=0;entryDy=0;" edge="1" parent="1" source="257" target="281">
                    <mxGeometry relative="1" as="geometry"/>
                </mxCell>
                <mxCell id="257" value="" style="html=1;dashed=0;whitespace=wrap;" vertex="1" parent="1">
                    <mxGeometry x="401" y="2853" width="100" height="50" as="geometry"/>
                </mxCell>
                <mxCell id="258" value="" style="shape=ellipse;html=1;dashed=0;whitespace=wrap;perimeter=ellipsePerimeter;" vertex="1" parent="1">
                    <mxGeometry x="626" y="2905" width="145" height="60" as="geometry"/>
                </mxCell>
                <mxCell id="259" value="Login" style="text;align=center;html=1;verticalAlign=middle;whiteSpace=wrap;rounded=0;" vertex="1" parent="1">
                    <mxGeometry x="670.13" y="2920" width="60" height="30" as="geometry"/>
                </mxCell>
                <mxCell id="260" value="" style="shape=ellipse;html=1;dashed=0;whitespace=wrap;perimeter=ellipsePerimeter;" vertex="1" parent="1">
                    <mxGeometry x="631" y="3040" width="140" height="70" as="geometry"/>
                </mxCell>
                <mxCell id="261" value="&#xa;Report issues with location and media evidence.&#xa;&#xa;" style="text;strokeColor=none;align=center;fillColor=none;html=1;verticalAlign=middle;whiteSpace=wrap;rounded=0;" vertex="1" parent="1">
                    <mxGeometry x="651.12" y="3066" width="101.25" height="30" as="geometry"/>
                </mxCell>
                <mxCell id="264" value="" style="shape=ellipse;html=1;dashed=0;whitespace=wrap;perimeter=ellipsePerimeter;" vertex="1" parent="1">
                    <mxGeometry x="631" y="3185" width="140" height="80" as="geometry"/>
                </mxCell>
                <mxCell id="265" value="" style="endArrow=classic;html=1;entryX=0.009;entryY=0.411;entryDx=0;entryDy=0;entryPerimeter=0;exitX=1;exitY=0.5;exitDx=0;exitDy=0;" edge="1" parent="1" source="257" target="258">
                    <mxGeometry width="50" height="50" relative="1" as="geometry">
                        <mxPoint x="501" y="2930" as="sourcePoint"/>
                        <mxPoint x="628.31" y="2929.7" as="targetPoint"/>
                    </mxGeometry>
                </mxCell>
                <mxCell id="266" value="" style="endArrow=classic;html=1;entryX=0;entryY=0.5;entryDx=0;entryDy=0;" edge="1" parent="1" target="260">
                    <mxGeometry width="50" height="50" relative="1" as="geometry">
                        <mxPoint x="531" y="3074" as="sourcePoint"/>
                        <mxPoint x="601" y="3034.5699999999997" as="targetPoint"/>
                    </mxGeometry>
                </mxCell>
                <mxCell id="268" value="Citizens" style="text;strokeColor=none;align=center;fillColor=none;html=1;verticalAlign=middle;whiteSpace=wrap;rounded=0;" vertex="1" parent="1">
                    <mxGeometry x="421" y="2863" width="60" height="30" as="geometry"/>
                </mxCell>
                <mxCell id="269" value="" style="html=1;dashed=0;whitespace=wrap;shape=mxgraph.dfd.dataStoreID;align=left;spacingLeft=3;points=[[0,0],[0.5,0],[1,0],[0,0.5],[1,0.5],[0,1],[0.5,1],[1,1]];" vertex="1" parent="1">
                    <mxGeometry x="840" y="3065" width="100" height="30" as="geometry"/>
                </mxCell>
                <mxCell id="270" value="" style="html=1;dashed=0;whitespace=wrap;shape=mxgraph.dfd.dataStoreID;align=left;spacingLeft=3;points=[[0,0],[0.5,0],[1,0],[0,0.5],[1,0.5],[0,1],[0.5,1],[1,1]];" vertex="1" parent="1">
                    <mxGeometry x="840" y="3201" width="100" height="30" as="geometry"/>
                </mxCell>
                <mxCell id="271" value="" style="edgeStyle=elbowEdgeStyle;elbow=horizontal;endArrow=classic;html=1;curved=0;rounded=0;endSize=8;startSize=8;exitX=0.013;exitY=0.625;exitDx=0;exitDy=0;entryX=0;entryY=0.75;entryDx=0;entryDy=0;exitPerimeter=0;" edge="1" parent="1" source="258" target="406">
                    <mxGeometry width="50" height="50" relative="1" as="geometry">
                        <mxPoint x="631.0000000000002" y="2941.27" as="sourcePoint"/>
                        <mxPoint x="633.5000000000008" y="3585" as="targetPoint"/>
                        <Array as="points">
                            <mxPoint x="531" y="3285"/>
                            <mxPoint x="531" y="2613.27"/>
                        </Array>
                    </mxGeometry>
                </mxCell>
                <mxCell id="272" value="&lt;p&gt;View project details, locations, progress,&lt;/p&gt;" style="text;strokeColor=none;align=center;fillColor=none;html=1;verticalAlign=middle;whiteSpace=wrap;rounded=0;" vertex="1" parent="1">
                    <mxGeometry x="634" y="3206" width="135" height="30" as="geometry"/>
                </mxCell>
                <mxCell id="273" value="Report" style="text;strokeColor=none;align=center;fillColor=none;html=1;verticalAlign=middle;whiteSpace=wrap;rounded=0;" vertex="1" parent="1">
                    <mxGeometry x="871" y="3066" width="60" height="30" as="geometry"/>
                </mxCell>
                <mxCell id="274" value="" style="endArrow=classic;html=1;entryX=0;entryY=0.5;entryDx=0;entryDy=0;" edge="1" parent="1" target="269">
                    <mxGeometry width="50" height="50" relative="1" as="geometry">
                        <mxPoint x="771" y="3080" as="sourcePoint"/>
                        <mxPoint x="821" y="3030" as="targetPoint"/>
                    </mxGeometry>
                </mxCell>
                <mxCell id="275" value="" style="endArrow=classic;html=1;entryX=0.999;entryY=0.448;entryDx=0;entryDy=0;entryPerimeter=0;exitX=-0.002;exitY=0.644;exitDx=0;exitDy=0;exitPerimeter=0;" edge="1" parent="1" source="270" target="264">
                    <mxGeometry width="50" height="50" relative="1" as="geometry">
                        <mxPoint x="840" y="3175" as="sourcePoint"/>
                        <mxPoint x="781" y="3215" as="targetPoint"/>
                    </mxGeometry>
                </mxCell>
                <mxCell id="277" value="Project" style="text;strokeColor=none;align=center;fillColor=none;html=1;verticalAlign=middle;whiteSpace=wrap;rounded=0;" vertex="1" parent="1">
                    <mxGeometry x="870" y="3201" width="60" height="30" as="geometry"/>
                </mxCell>
                <mxCell id="278" value="" style="html=1;dashed=0;whitespace=wrap;shape=mxgraph.dfd.dataStoreID;align=left;spacingLeft=3;points=[[0,0],[0.5,0],[1,0],[0,0.5],[1,0.5],[0,1],[0.5,1],[1,1]];" vertex="1" parent="1">
                    <mxGeometry x="840" y="2866" width="100" height="30" as="geometry"/>
                </mxCell>
                <mxCell id="279" value="" style="endArrow=classic;html=1;entryX=1;entryY=0.5;entryDx=0;entryDy=0;exitX=-0.001;exitY=0.666;exitDx=0;exitDy=0;exitPerimeter=0;" edge="1" parent="1" source="278" target="258">
                    <mxGeometry width="50" height="50" relative="1" as="geometry">
                        <mxPoint x="841" y="2885" as="sourcePoint"/>
                        <mxPoint x="780" y="2934.64" as="targetPoint"/>
                    </mxGeometry>
                </mxCell>
                <mxCell id="280" value="User" style="text;strokeColor=none;align=center;fillColor=none;html=1;verticalAlign=middle;whiteSpace=wrap;rounded=0;" vertex="1" parent="1">
                    <mxGeometry x="871" y="2866" width="60" height="30" as="geometry"/>
                </mxCell>
                <mxCell id="281" value="" style="shape=ellipse;html=1;dashed=0;whitespace=wrap;perimeter=ellipsePerimeter;" vertex="1" parent="1">
                    <mxGeometry x="629" y="2805" width="145" height="60" as="geometry"/>
                </mxCell>
                <mxCell id="282" value="Register" style="text;strokeColor=none;align=center;fillColor=none;html=1;verticalAlign=middle;whiteSpace=wrap;rounded=0;" vertex="1" parent="1">
                    <mxGeometry x="671.75" y="2820" width="60" height="30" as="geometry"/>
                </mxCell>
                <mxCell id="283" value="" style="endArrow=classic;html=1;entryX=-0.001;entryY=0.278;entryDx=0;entryDy=0;entryPerimeter=0;" edge="1" parent="1" target="278">
                    <mxGeometry width="50" height="50" relative="1" as="geometry">
                        <mxPoint x="774" y="2835" as="sourcePoint"/>
                        <mxPoint x="841" y="2875" as="targetPoint"/>
                    </mxGeometry>
                </mxCell>
                <mxCell id="284" value="" style="endArrow=classic;html=1;entryX=-0.005;entryY=0.438;entryDx=0;entryDy=0;entryPerimeter=0;exitX=0.984;exitY=0.356;exitDx=0;exitDy=0;exitPerimeter=0;" edge="1" parent="1" source="258" target="278">
                    <mxGeometry width="50" height="50" relative="1" as="geometry">
                        <mxPoint x="769" y="2925" as="sourcePoint"/>
                        <mxPoint x="841" y="2875" as="targetPoint"/>
                    </mxGeometry>
                </mxCell>
                <mxCell id="313" value="" style="html=1;dashed=0;whitespace=wrap;" vertex="1" parent="1">
                    <mxGeometry x="331" y="1934" width="100" height="50" as="geometry"/>
                </mxCell>
                <mxCell id="314" value="" style="shape=ellipse;html=1;dashed=0;whitespace=wrap;perimeter=ellipsePerimeter;" vertex="1" parent="1">
                    <mxGeometry x="556" y="1980" width="145" height="60" as="geometry"/>
                </mxCell>
                <mxCell id="315" value="Login" style="text;align=center;html=1;verticalAlign=middle;whiteSpace=wrap;rounded=0;" vertex="1" parent="1">
                    <mxGeometry x="600.13" y="1995" width="60" height="30" as="geometry"/>
                </mxCell>
                <mxCell id="316" value="" style="shape=ellipse;html=1;dashed=0;whitespace=wrap;perimeter=ellipsePerimeter;" vertex="1" parent="1">
                    <mxGeometry x="561" y="2188" width="140" height="90" as="geometry"/>
                </mxCell>
                <mxCell id="317" value="" style="shape=ellipse;html=1;dashed=0;whitespace=wrap;perimeter=ellipsePerimeter;" vertex="1" parent="1">
                    <mxGeometry x="561" y="2073" width="140" height="77" as="geometry"/>
                </mxCell>
                <mxCell id="318" value="" style="endArrow=classic;html=1;entryX=0.009;entryY=0.411;entryDx=0;entryDy=0;entryPerimeter=0;exitX=1;exitY=0.5;exitDx=0;exitDy=0;" edge="1" parent="1" source="313" target="314">
                    <mxGeometry width="50" height="50" relative="1" as="geometry">
                        <mxPoint x="431" y="2005" as="sourcePoint"/>
                        <mxPoint x="558.31" y="2004.6999999999998" as="targetPoint"/>
                    </mxGeometry>
                </mxCell>
                <mxCell id="319" value="" style="endArrow=classic;html=1;" edge="1" parent="1">
                    <mxGeometry width="50" height="50" relative="1" as="geometry">
                        <mxPoint x="461" y="2114" as="sourcePoint"/>
                        <mxPoint x="561" y="2114" as="targetPoint"/>
                    </mxGeometry>
                </mxCell>
                <mxCell id="320" value="Contractors" style="text;strokeColor=none;align=center;fillColor=none;html=1;verticalAlign=middle;whiteSpace=wrap;rounded=0;" vertex="1" parent="1">
                    <mxGeometry x="351" y="1944" width="60" height="30" as="geometry"/>
                </mxCell>
                <mxCell id="321" value="" style="html=1;dashed=0;whitespace=wrap;shape=mxgraph.dfd.dataStoreID;align=left;spacingLeft=3;points=[[0,0],[0.5,0],[1,0],[0,0.5],[1,0.5],[0,1],[0.5,1],[1,1]];" vertex="1" parent="1">
                    <mxGeometry x="809" y="2094" width="100" height="30" as="geometry"/>
                </mxCell>
                <mxCell id="322" value="" style="html=1;dashed=0;whitespace=wrap;shape=mxgraph.dfd.dataStoreID;align=left;spacingLeft=3;points=[[0,0],[0.5,0],[1,0],[0,0.5],[1,0.5],[0,1],[0.5,1],[1,1]];" vertex="1" parent="1">
                    <mxGeometry x="809" y="2278" width="100" height="30" as="geometry"/>
                </mxCell>
                <mxCell id="323" value="" style="edgeStyle=elbowEdgeStyle;elbow=horizontal;endArrow=classic;html=1;curved=0;rounded=0;endSize=8;startSize=8;exitX=0.013;exitY=0.625;exitDx=0;exitDy=0;exitPerimeter=0;entryX=-0.015;entryY=0.509;entryDx=0;entryDy=0;entryPerimeter=0;" edge="1" parent="1" source="314" target="328">
                    <mxGeometry width="50" height="50" relative="1" as="geometry">
                        <mxPoint x="561.0000000000002" y="2016.27" as="sourcePoint"/>
                        <mxPoint x="551" y="2180" as="targetPoint"/>
                        <Array as="points">
                            <mxPoint x="461" y="2360"/>
                            <mxPoint x="461" y="1688.27"/>
                        </Array>
                    </mxGeometry>
                </mxCell>
                <mxCell id="324" value="&lt;p&gt;View project details, progress&lt;/p&gt;" style="text;strokeColor=none;align=center;fillColor=none;html=1;verticalAlign=middle;whiteSpace=wrap;rounded=0;" vertex="1" parent="1">
                    <mxGeometry x="563" y="2218" width="140" height="30" as="geometry"/>
                </mxCell>
                <mxCell id="325" value="submit bid" style="text;strokeColor=none;align=center;fillColor=none;html=1;verticalAlign=middle;whiteSpace=wrap;rounded=0;" vertex="1" parent="1">
                    <mxGeometry x="579.8" y="2097" width="107.88" height="30" as="geometry"/>
                </mxCell>
                <mxCell id="328" value="" style="shape=ellipse;html=1;dashed=0;whitespace=wrap;perimeter=ellipsePerimeter;" vertex="1" parent="1">
                    <mxGeometry x="571" y="2429" width="128" height="80" as="geometry"/>
                </mxCell>
                <mxCell id="329" value="&amp;nbsp;upload expenses&amp;nbsp;" style="text;strokeColor=none;align=center;fillColor=none;html=1;verticalAlign=middle;whiteSpace=wrap;rounded=0;" vertex="1" parent="1">
                    <mxGeometry x="575" y="2454" width="120" height="30" as="geometry"/>
                </mxCell>
                <mxCell id="330" value="" style="endArrow=classic;html=1;" edge="1" parent="1">
                    <mxGeometry width="50" height="50" relative="1" as="geometry">
                        <mxPoint x="461.0000000000001" y="2354.52" as="sourcePoint"/>
                        <mxPoint x="561" y="2354.52" as="targetPoint"/>
                    </mxGeometry>
                </mxCell>
                <mxCell id="331" value="" style="endArrow=classic;html=1;" edge="1" parent="1">
                    <mxGeometry width="50" height="50" relative="1" as="geometry">
                        <mxPoint x="461.0000000000001" y="2232.52" as="sourcePoint"/>
                        <mxPoint x="561" y="2232.52" as="targetPoint"/>
                    </mxGeometry>
                </mxCell>
                <mxCell id="332" value="" style="html=1;dashed=0;whitespace=wrap;shape=mxgraph.dfd.dataStoreID;align=left;spacingLeft=3;points=[[0,0],[0.5,0],[1,0],[0,0.5],[1,0.5],[0,1],[0.5,1],[1,1]];" vertex="1" parent="1">
                    <mxGeometry x="808" y="2454" width="100" height="30" as="geometry"/>
                </mxCell>
                <mxCell id="333" value="" style="html=1;dashed=0;whitespace=wrap;shape=mxgraph.dfd.dataStoreID;align=left;spacingLeft=3;points=[[0,0],[0.5,0],[1,0],[0,0.5],[1,0.5],[0,1],[0.5,1],[1,1]];" vertex="1" parent="1">
                    <mxGeometry x="808" y="1941" width="100" height="30" as="geometry"/>
                </mxCell>
                <mxCell id="334" value="User" style="text;strokeColor=none;align=center;fillColor=none;html=1;verticalAlign=middle;whiteSpace=wrap;rounded=0;" vertex="1" parent="1">
                    <mxGeometry x="838" y="1941" width="60" height="30" as="geometry"/>
                </mxCell>
                <mxCell id="335" value="" style="endArrow=classic;html=1;entryX=1;entryY=0.5;entryDx=0;entryDy=0;exitX=-0.006;exitY=0.818;exitDx=0;exitDy=0;exitPerimeter=0;" edge="1" parent="1" source="333" target="314">
                    <mxGeometry width="50" height="50" relative="1" as="geometry">
                        <mxPoint x="731" y="1995" as="sourcePoint"/>
                        <mxPoint x="691" y="1970" as="targetPoint"/>
                    </mxGeometry>
                </mxCell>
                <mxCell id="336" value="" style="endArrow=classic;html=1;entryX=0;entryY=0.5;entryDx=0;entryDy=0;exitX=1;exitY=0.5;exitDx=0;exitDy=0;" edge="1" parent="1" source="317" target="321">
                    <mxGeometry width="50" height="50" relative="1" as="geometry">
                        <mxPoint x="731" y="2109" as="sourcePoint"/>
                        <mxPoint x="753" y="2060" as="targetPoint"/>
                    </mxGeometry>
                </mxCell>
                <mxCell id="337" value="Bid" style="text;strokeColor=none;align=center;fillColor=none;html=1;verticalAlign=middle;whiteSpace=wrap;rounded=0;" vertex="1" parent="1">
                    <mxGeometry x="838" y="2097" width="60" height="30" as="geometry"/>
                </mxCell>
                <mxCell id="338" value="Tender" style="text;strokeColor=none;align=center;fillColor=none;html=1;verticalAlign=middle;whiteSpace=wrap;rounded=0;" vertex="1" parent="1">
                    <mxGeometry x="839" y="2278" width="60" height="30" as="geometry"/>
                </mxCell>
                <mxCell id="339" value="" style="endArrow=classic;html=1;entryX=0.986;entryY=0.4;entryDx=0;entryDy=0;exitX=0;exitY=0.5;exitDx=0;exitDy=0;entryPerimeter=0;" edge="1" parent="1" source="322" target="324">
                    <mxGeometry width="50" height="50" relative="1" as="geometry">
                        <mxPoint x="789" y="2280" as="sourcePoint"/>
                        <mxPoint x="839" y="2230" as="targetPoint"/>
                    </mxGeometry>
                </mxCell>
                <mxCell id="340" style="edgeStyle=none;html=1;entryX=0.005;entryY=0.254;entryDx=0;entryDy=0;entryPerimeter=0;" edge="1" parent="1" target="333">
                    <mxGeometry relative="1" as="geometry">
                        <mxPoint x="807" y="1937.1" as="targetPoint"/>
                        <mxPoint x="694.1119409441781" y="1918.8290172354127" as="sourcePoint"/>
                    </mxGeometry>
                </mxCell>
                <mxCell id="341" value="" style="shape=ellipse;html=1;dashed=0;whitespace=wrap;perimeter=ellipsePerimeter;" vertex="1" parent="1">
                    <mxGeometry x="554" y="1890" width="145" height="60" as="geometry"/>
                </mxCell>
                <mxCell id="342" value="Registor" style="text;strokeColor=none;align=center;fillColor=none;html=1;verticalAlign=middle;whiteSpace=wrap;rounded=0;" vertex="1" parent="1">
                    <mxGeometry x="601" y="1905" width="60" height="30" as="geometry"/>
                </mxCell>
                <mxCell id="343" value="" style="endArrow=classic;html=1;entryX=0;entryY=0.5;entryDx=0;entryDy=0;exitX=1;exitY=0.25;exitDx=0;exitDy=0;" edge="1" parent="1" source="313" target="341">
                    <mxGeometry width="50" height="50" relative="1" as="geometry">
                        <mxPoint x="445.06" y="1928.3400000000001" as="sourcePoint"/>
                        <mxPoint x="571.365" y="1974" as="targetPoint"/>
                    </mxGeometry>
                </mxCell>
                <mxCell id="344" style="edgeStyle=none;html=1;entryX=0;entryY=0.5;entryDx=0;entryDy=0;exitX=0.971;exitY=0.311;exitDx=0;exitDy=0;exitPerimeter=0;" edge="1" parent="1" source="314" target="333">
                    <mxGeometry relative="1" as="geometry">
                        <mxPoint x="818.4999999999999" y="1958.62" as="targetPoint"/>
                        <mxPoint x="704.1119409441781" y="1928.8290172354127" as="sourcePoint"/>
                    </mxGeometry>
                </mxCell>
                <mxCell id="345" value="" style="endArrow=classic;html=1;entryX=0;entryY=0.5;entryDx=0;entryDy=0;" edge="1" parent="1">
                    <mxGeometry width="50" height="50" relative="1" as="geometry">
                        <mxPoint x="703" y="2360" as="sourcePoint"/>
                        <mxPoint x="811" y="2328" as="targetPoint"/>
                    </mxGeometry>
                </mxCell>
                <mxCell id="346" value="" style="endArrow=classic;html=1;entryX=0;entryY=0.5;entryDx=0;entryDy=0;exitX=0.999;exitY=0.512;exitDx=0;exitDy=0;exitPerimeter=0;" edge="1" parent="1" source="328" target="332">
                    <mxGeometry width="50" height="50" relative="1" as="geometry">
                        <mxPoint x="702.5" y="2470" as="sourcePoint"/>
                        <mxPoint x="752.5" y="2420" as="targetPoint"/>
                    </mxGeometry>
                </mxCell>
                <mxCell id="347" value="Expense" style="text;strokeColor=none;align=center;fillColor=none;html=1;verticalAlign=middle;whiteSpace=wrap;rounded=0;" vertex="1" parent="1">
                    <mxGeometry x="838" y="2454" width="60" height="30" as="geometry"/>
                </mxCell>
                <mxCell id="348" value="&amp;nbsp; &amp;nbsp; &amp;nbsp; &amp;nbsp; &amp;nbsp; &amp;nbsp; Project" style="html=1;dashed=0;whitespace=wrap;shape=mxgraph.dfd.dataStoreID;align=left;spacingLeft=3;points=[[0,0],[0.5,0],[1,0],[0,0.5],[1,0.5],[0,1],[0.5,1],[1,1]];" vertex="1" parent="1">
                    <mxGeometry x="809" y="2317" width="100" height="30" as="geometry"/>
                </mxCell>
                <mxCell id="350" value="Implement project/&lt;div&gt;Update progress&lt;div&gt;&lt;br&gt;&lt;/div&gt;&lt;/div&gt;" style="shape=ellipse;html=1;dashed=0;whitespace=wrap;perimeter=ellipsePerimeter;" vertex="1" parent="1">
                    <mxGeometry x="563" y="2311" width="140" height="90" as="geometry"/>
                </mxCell>
                <mxCell id="352" value="" style="endArrow=classic;html=1;entryX=0;entryY=0.5;entryDx=0;entryDy=0;" edge="1" parent="1">
                    <mxGeometry width="50" height="50" relative="1" as="geometry">
                        <mxPoint x="699" y="2340" as="sourcePoint"/>
                        <mxPoint x="807" y="2308" as="targetPoint"/>
                    </mxGeometry>
                </mxCell>
                <mxCell id="354" style="edgeStyle=none;html=1;exitX=1;exitY=0.5;exitDx=0;exitDy=0;entryX=0.36;entryY=0.954;entryDx=0;entryDy=0;entryPerimeter=0;" edge="1" parent="1" source="353" target="62">
                    <mxGeometry relative="1" as="geometry"/>
                </mxCell>
                <mxCell id="353" value="Admin" style="html=1;dashed=0;whitespace=wrap;" vertex="1" parent="1">
                    <mxGeometry x="262" y="454" width="100" height="50" as="geometry"/>
                </mxCell>
                <mxCell id="357" value="&amp;nbsp; &amp;nbsp; &amp;nbsp; &amp;nbsp; &amp;nbsp; &amp;nbsp; &amp;nbsp;Bid" style="html=1;dashed=0;whitespace=wrap;shape=mxgraph.dfd.dataStoreID;align=left;spacingLeft=3;points=[[0,0],[0.5,0],[1,0],[0,0.5],[1,0.5],[0,1],[0.5,1],[1,1]];" vertex="1" parent="1">
                    <mxGeometry x="770" y="1528" width="100" height="30" as="geometry"/>
                </mxCell>
                <mxCell id="358" style="edgeStyle=none;html=1;" edge="1" parent="1">
                    <mxGeometry relative="1" as="geometry">
                        <mxPoint x="640.0000103404934" y="1660.8442812826456" as="sourcePoint"/>
                        <mxPoint x="769" y="1661" as="targetPoint"/>
                    </mxGeometry>
                </mxCell>
                <mxCell id="359" value="" style="shape=ellipse;html=1;dashed=0;whitespace=wrap;perimeter=ellipsePerimeter;" vertex="1" parent="1">
                    <mxGeometry x="490" y="1612" width="150" height="90" as="geometry"/>
                </mxCell>
                <mxCell id="360" value="Update project progress" style="text;strokeColor=none;align=center;fillColor=none;html=1;verticalAlign=middle;whiteSpace=wrap;rounded=0;" vertex="1" parent="1">
                    <mxGeometry x="516.1199999999999" y="1646" width="101.25" height="30" as="geometry"/>
                </mxCell>
                <mxCell id="361" value="&amp;nbsp; &amp;nbsp; &amp;nbsp; &amp;nbsp; &amp;nbsp; &amp;nbsp; &amp;nbsp;Project" style="html=1;dashed=0;whitespace=wrap;shape=mxgraph.dfd.dataStoreID;align=left;spacingLeft=3;points=[[0,0],[0.5,0],[1,0],[0,0.5],[1,0.5],[0,1],[0.5,1],[1,1]];" vertex="1" parent="1">
                    <mxGeometry x="770" y="1646" width="100" height="30" as="geometry"/>
                </mxCell>
                <mxCell id="362" value="" style="endArrow=classic;html=1;entryX=0;entryY=0.5;entryDx=0;entryDy=0;" edge="1" parent="1">
                    <mxGeometry width="50" height="50" relative="1" as="geometry">
                        <mxPoint x="387.74" y="1542.44" as="sourcePoint"/>
                        <mxPoint x="487.74" y="1542.87" as="targetPoint"/>
                    </mxGeometry>
                </mxCell>
                <mxCell id="370" value="" style="html=1;dashed=0;whitespace=wrap;" vertex="1" parent="1">
                    <mxGeometry x="421" y="3562" width="100" height="50" as="geometry"/>
                </mxCell>
                <mxCell id="371" value="" style="shape=ellipse;html=1;dashed=0;whitespace=wrap;perimeter=ellipsePerimeter;" vertex="1" parent="1">
                    <mxGeometry x="646" y="3563" width="145" height="60" as="geometry"/>
                </mxCell>
                <mxCell id="372" value="Login" style="text;align=center;html=1;verticalAlign=middle;whiteSpace=wrap;rounded=0;" vertex="1" parent="1">
                    <mxGeometry x="690.13" y="3578" width="60" height="30" as="geometry"/>
                </mxCell>
                <mxCell id="373" value="" style="shape=ellipse;html=1;dashed=0;whitespace=wrap;perimeter=ellipsePerimeter;" vertex="1" parent="1">
                    <mxGeometry x="651" y="3698" width="140" height="70" as="geometry"/>
                </mxCell>
                <mxCell id="374" value="&lt;br&gt;User Management" style="text;strokeColor=none;align=center;fillColor=none;html=1;verticalAlign=middle;whiteSpace=wrap;rounded=0;" vertex="1" parent="1">
                    <mxGeometry x="671.12" y="3711" width="101.25" height="30" as="geometry"/>
                </mxCell>
                <mxCell id="375" value="" style="shape=ellipse;html=1;dashed=0;whitespace=wrap;perimeter=ellipsePerimeter;" vertex="1" parent="1">
                    <mxGeometry x="651" y="3843" width="140" height="80" as="geometry"/>
                </mxCell>
                <mxCell id="376" value="" style="endArrow=classic;html=1;entryX=0.009;entryY=0.411;entryDx=0;entryDy=0;entryPerimeter=0;exitX=1;exitY=0.5;exitDx=0;exitDy=0;" edge="1" target="371" parent="1">
                    <mxGeometry width="50" height="50" relative="1" as="geometry">
                        <mxPoint x="521.0000000000005" y="3587" as="sourcePoint"/>
                        <mxPoint x="648.31" y="3587.7" as="targetPoint"/>
                    </mxGeometry>
                </mxCell>
                <mxCell id="377" value="" style="endArrow=classic;html=1;entryX=0;entryY=0.5;entryDx=0;entryDy=0;" edge="1" target="373" parent="1">
                    <mxGeometry width="50" height="50" relative="1" as="geometry">
                        <mxPoint x="551" y="3732" as="sourcePoint"/>
                        <mxPoint x="621" y="3692.5699999999997" as="targetPoint"/>
                    </mxGeometry>
                </mxCell>
                <mxCell id="378" value="Admin" style="text;strokeColor=none;align=center;fillColor=none;html=1;verticalAlign=middle;whiteSpace=wrap;rounded=0;" vertex="1" parent="1">
                    <mxGeometry x="441" y="3572" width="60" height="30" as="geometry"/>
                </mxCell>
                <mxCell id="379" value="" style="html=1;dashed=0;whitespace=wrap;shape=mxgraph.dfd.dataStoreID;align=left;spacingLeft=3;points=[[0,0],[0.5,0],[1,0],[0,0.5],[1,0.5],[0,1],[0.5,1],[1,1]];" vertex="1" parent="1">
                    <mxGeometry x="860" y="3723" width="100" height="30" as="geometry"/>
                </mxCell>
                <mxCell id="380" value="" style="html=1;dashed=0;whitespace=wrap;shape=mxgraph.dfd.dataStoreID;align=left;spacingLeft=3;points=[[0,0],[0.5,0],[1,0],[0,0.5],[1,0.5],[0,1],[0.5,1],[1,1]];" vertex="1" parent="1">
                    <mxGeometry x="860" y="3859" width="100" height="30" as="geometry"/>
                </mxCell>
                <mxCell id="381" value="" style="edgeStyle=elbowEdgeStyle;elbow=horizontal;endArrow=classic;html=1;curved=0;rounded=0;endSize=8;startSize=8;exitX=0.013;exitY=0.625;exitDx=0;exitDy=0;exitPerimeter=0;" edge="1" source="371" parent="1">
                    <mxGeometry width="50" height="50" relative="1" as="geometry">
                        <mxPoint x="651.0000000000002" y="3599.27" as="sourcePoint"/>
                        <mxPoint x="648" y="3883" as="targetPoint"/>
                        <Array as="points">
                            <mxPoint x="551" y="3943"/>
                            <mxPoint x="551" y="3271.27"/>
                        </Array>
                    </mxGeometry>
                </mxCell>
                <mxCell id="382" value="&lt;p&gt;Data management&lt;/p&gt;" style="text;strokeColor=none;align=center;fillColor=none;html=1;verticalAlign=middle;whiteSpace=wrap;rounded=0;" vertex="1" parent="1">
                    <mxGeometry x="654" y="3864" width="135" height="30" as="geometry"/>
                </mxCell>
                <mxCell id="383" value="User" style="text;strokeColor=none;align=center;fillColor=none;html=1;verticalAlign=middle;whiteSpace=wrap;rounded=0;" vertex="1" parent="1">
                    <mxGeometry x="891" y="3724" width="60" height="30" as="geometry"/>
                </mxCell>
                <mxCell id="384" value="" style="endArrow=classic;html=1;entryX=0;entryY=0.5;entryDx=0;entryDy=0;" edge="1" target="379" parent="1">
                    <mxGeometry width="50" height="50" relative="1" as="geometry">
                        <mxPoint x="791" y="3738" as="sourcePoint"/>
                        <mxPoint x="841" y="3688" as="targetPoint"/>
                    </mxGeometry>
                </mxCell>
                <mxCell id="385" value="" style="endArrow=classic;html=1;entryX=0.999;entryY=0.448;entryDx=0;entryDy=0;entryPerimeter=0;exitX=-0.002;exitY=0.644;exitDx=0;exitDy=0;exitPerimeter=0;" edge="1" parent="1">
                    <mxGeometry width="50" height="50" relative="1" as="geometry">
                        <mxPoint x="860" y="3878.4700000000003" as="sourcePoint"/>
                        <mxPoint x="791.06" y="3878.99" as="targetPoint"/>
                    </mxGeometry>
                </mxCell>
                <mxCell id="386" value="Project" style="text;strokeColor=none;align=center;fillColor=none;html=1;verticalAlign=middle;whiteSpace=wrap;rounded=0;" vertex="1" parent="1">
                    <mxGeometry x="890" y="3859" width="60" height="30" as="geometry"/>
                </mxCell>
                <mxCell id="387" value="" style="html=1;dashed=0;whitespace=wrap;shape=mxgraph.dfd.dataStoreID;align=left;spacingLeft=3;points=[[0,0],[0.5,0],[1,0],[0,0.5],[1,0.5],[0,1],[0.5,1],[1,1]];" vertex="1" parent="1">
                    <mxGeometry x="860" y="3572" width="100" height="30" as="geometry"/>
                </mxCell>
                <mxCell id="388" value="" style="endArrow=classic;html=1;entryX=1;entryY=0.5;entryDx=0;entryDy=0;exitX=-0.001;exitY=0.666;exitDx=0;exitDy=0;exitPerimeter=0;" edge="1" source="387" target="371" parent="1">
                    <mxGeometry width="50" height="50" relative="1" as="geometry">
                        <mxPoint x="861" y="3543" as="sourcePoint"/>
                        <mxPoint x="800" y="3592.64" as="targetPoint"/>
                    </mxGeometry>
                </mxCell>
                <mxCell id="389" value="Admin" style="text;strokeColor=none;align=center;fillColor=none;html=1;verticalAlign=middle;whiteSpace=wrap;rounded=0;" vertex="1" parent="1">
                    <mxGeometry x="891" y="3572" width="60" height="30" as="geometry"/>
                </mxCell>
                <mxCell id="393" value="" style="endArrow=classic;html=1;entryX=-0.005;entryY=0.438;entryDx=0;entryDy=0;entryPerimeter=0;exitX=0.984;exitY=0.356;exitDx=0;exitDy=0;exitPerimeter=0;" edge="1" source="371" target="387" parent="1">
                    <mxGeometry width="50" height="50" relative="1" as="geometry">
                        <mxPoint x="789" y="3583" as="sourcePoint"/>
                        <mxPoint x="861" y="3533" as="targetPoint"/>
                    </mxGeometry>
                </mxCell>
                <mxCell id="404" value="" style="shape=ellipse;html=1;dashed=0;whitespace=wrap;perimeter=ellipsePerimeter;" vertex="1" parent="1">
                    <mxGeometry x="631" y="3294" width="140" height="80" as="geometry"/>
                </mxCell>
                <mxCell id="405" value="" style="html=1;dashed=0;whitespace=wrap;shape=mxgraph.dfd.dataStoreID;align=left;spacingLeft=3;points=[[0,0],[0.5,0],[1,0],[0,0.5],[1,0.5],[0,1],[0.5,1],[1,1]];" vertex="1" parent="1">
                    <mxGeometry x="840" y="3310" width="100" height="30" as="geometry"/>
                </mxCell>
                <mxCell id="406" value="&lt;p&gt;VIew tender details&lt;/p&gt;" style="text;strokeColor=none;align=center;fillColor=none;html=1;verticalAlign=middle;whiteSpace=wrap;rounded=0;" vertex="1" parent="1">
                    <mxGeometry x="634" y="3315" width="135" height="30" as="geometry"/>
                </mxCell>
                <mxCell id="407" value="" style="endArrow=classic;html=1;entryX=0.999;entryY=0.448;entryDx=0;entryDy=0;entryPerimeter=0;exitX=-0.002;exitY=0.644;exitDx=0;exitDy=0;exitPerimeter=0;" edge="1" parent="1" source="405" target="404">
                    <mxGeometry width="50" height="50" relative="1" as="geometry">
                        <mxPoint x="840" y="3284" as="sourcePoint"/>
                        <mxPoint x="781" y="3324" as="targetPoint"/>
                    </mxGeometry>
                </mxCell>
                <mxCell id="408" value="Tender" style="text;strokeColor=none;align=center;fillColor=none;html=1;verticalAlign=middle;whiteSpace=wrap;rounded=0;" vertex="1" parent="1">
                    <mxGeometry x="870" y="3310" width="60" height="30" as="geometry"/>
                </mxCell>
                <mxCell id="409" value="" style="endArrow=classic;html=1;entryX=0;entryY=0.5;entryDx=0;entryDy=0;" edge="1" parent="1">
                    <mxGeometry width="50" height="50" relative="1" as="geometry">
                        <mxPoint x="531" y="3220.44" as="sourcePoint"/>
                        <mxPoint x="631" y="3221.44" as="targetPoint"/>
                    </mxGeometry>
                </mxCell>
                <mxCell id="410" value="" style="html=1;dashed=0;whitespace=wrap;shape=mxgraph.dfd.dataStoreID;align=left;spacingLeft=3;points=[[0,0],[0.5,0],[1,0],[0,0.5],[1,0.5],[0,1],[0.5,1],[1,1]];" vertex="1" parent="1">
                    <mxGeometry x="860" y="3923" width="100" height="30" as="geometry"/>
                </mxCell>
                <mxCell id="411" value="Tender" style="text;strokeColor=none;align=center;fillColor=none;html=1;verticalAlign=middle;whiteSpace=wrap;rounded=0;" vertex="1" parent="1">
                    <mxGeometry x="890" y="3923" width="60" height="30" as="geometry"/>
                </mxCell>
                <mxCell id="412" value="" style="endArrow=classic;html=1;entryX=0.927;entryY=0.817;entryDx=0;entryDy=0;entryPerimeter=0;exitX=-0.002;exitY=0.644;exitDx=0;exitDy=0;exitPerimeter=0;" edge="1" parent="1" target="375">
                    <mxGeometry width="50" height="50" relative="1" as="geometry">
                        <mxPoint x="860" y="3937.4700000000003" as="sourcePoint"/>
                        <mxPoint x="791.06" y="3937.99" as="targetPoint"/>
                    </mxGeometry>
                </mxCell>
                <mxCell id="413" value="" style="endArrow=classic;html=1;entryX=-0.005;entryY=0.438;entryDx=0;entryDy=0;entryPerimeter=0;exitX=0.984;exitY=0.356;exitDx=0;exitDy=0;exitPerimeter=0;" edge="1" parent="1">
                    <mxGeometry width="50" height="50" relative="1" as="geometry">
                        <mxPoint x="791.32" y="3887.59" as="sourcePoint"/>
                        <mxPoint x="862.32" y="3888.59" as="targetPoint"/>
                    </mxGeometry>
                </mxCell>
                <mxCell id="414" value="" style="endArrow=classic;html=1;entryX=-0.005;entryY=0.438;entryDx=0;entryDy=0;entryPerimeter=0;exitX=1;exitY=1;exitDx=0;exitDy=0;" edge="1" parent="1" source="375">
                    <mxGeometry width="50" height="50" relative="1" as="geometry">
                        <mxPoint x="789" y="3937.4699999999993" as="sourcePoint"/>
                        <mxPoint x="860" y="3938.4699999999993" as="targetPoint"/>
                    </mxGeometry>
                </mxCell>
                <mxCell id="415" value="&lt;font style=&quot;font-size: 25px;&quot;&gt;&lt;b style=&quot;&quot;&gt;Level 1.0&lt;/b&gt;&lt;/font&gt;" style="text;html=1;align=center;verticalAlign=middle;resizable=0;points=[];autosize=1;strokeColor=none;fillColor=none;" vertex="1" parent="1">
                    <mxGeometry x="130" y="90" width="130" height="40" as="geometry"/>
                </mxCell>
                <mxCell id="416" value="&lt;font style=&quot;font-size: 25px;&quot;&gt;&lt;b style=&quot;&quot;&gt;Level 1.1&lt;/b&gt;&lt;/font&gt;" style="text;html=1;align=center;verticalAlign=middle;resizable=0;points=[];autosize=1;strokeColor=none;fillColor=none;" vertex="1" parent="1">
                    <mxGeometry x="130" y="640" width="130" height="40" as="geometry"/>
                </mxCell>
                <mxCell id="417" value="&lt;font style=&quot;font-size: 25px;&quot;&gt;&lt;b style=&quot;&quot;&gt;Level 1.2&lt;/b&gt;&lt;/font&gt;" style="text;html=1;align=center;verticalAlign=middle;resizable=0;points=[];autosize=1;strokeColor=none;fillColor=none;" vertex="1" parent="1">
                    <mxGeometry x="140" y="1800" width="130" height="40" as="geometry"/>
                </mxCell>
                <mxCell id="418" value="&lt;font style=&quot;font-size: 25px;&quot;&gt;&lt;b style=&quot;&quot;&gt;Level 1.3&lt;/b&gt;&lt;/font&gt;" style="text;html=1;align=center;verticalAlign=middle;resizable=0;points=[];autosize=1;strokeColor=none;fillColor=none;" vertex="1" parent="1">
                    <mxGeometry x="170" y="2680" width="130" height="40" as="geometry"/>
                </mxCell>
                <mxCell id="419" value="&lt;font style=&quot;font-size: 25px;&quot;&gt;&lt;b style=&quot;&quot;&gt;Level 1.4&lt;/b&gt;&lt;/font&gt;" style="text;html=1;align=center;verticalAlign=middle;resizable=0;points=[];autosize=1;strokeColor=none;fillColor=none;" vertex="1" parent="1">
                    <mxGeometry x="210" y="3480" width="130" height="40" as="geometry"/>
                </mxCell>
            </root>
        </mxGraphModel>
    </diagram>
</mxfile>